<svg version="1.0" xmlns="http://www.w3.org/2000/svg" width="256" height="256.8" viewBox="0 0 192 192.6" fill="currentColor" stroke="currentColor"><path d="M142.2 0.92c-10.78 2.76 -21.78 8.2 -30.72 15.18 -1.86 1.46 -6.52 5.58 -9.28 8.22l-1.9 1.82 -3.6 0.14c-20.98 0.8 -39.94 4.84 -57.38 12.26C25.26 44.52 12.38 52.78 3.34 61.6L0.36 64.5l1.14 1.5C19.34 89.22 48.2 100.68 86.84 99.92l6.54 -0.12 1.04 1.52c1.72 2.56 4.9 6.38 7.28 8.76 3.7 3.7 6.14 5.5 11.28 8.32 2.1 1.16 6.6 3.28 6.72 3.16 0.2 -0.2 2.56 -12.38 3.8 -19.58 0.38 -2.22 0.72 -4.08 0.78 -4.12 0.2 -0.2 5.6 0.42 7.26 0.84 4.62 1.18 6.92 3.28 8.22 7.5 0.9 2.94 0.76 5.06 -0.5 7.6 -2.8 5.7 -13.74 11.38 -32.16 16.7 -8.66 2.5 -13.76 3.18 -18.12 2.4 -0.92 -0.16 -3.38 -0.84 -5.46 -1.5 -7.14 -2.28 -9.82 -2.68 -18.42 -2.7 -5.5 0 -6.54 0.06 -9.3 0.48 -10 1.5 -17.5 4.88 -22.9 10.3l-2.2 2.22 14.2 0.12c14.56 0.12 17.2 0.24 22.5 1.1 6.34 1 11.9 2.88 15.1 5.08 3.76 2.58 5.52 8.26 5.24 16.8 -0.24 6.94 -1.82 15.9 -4.36 24.68 -0.44 1.52 -0.76 2.8 -0.72 2.84 0.14 0.14 2.38 -0.7 4.06 -1.52 5.02 -2.42 8.86 -6.32 11.54 -11.7 1.96 -3.94 3.06 -7.56 5.14 -16.8 0.78 -3.52 1.66 -7.06 1.92 -7.86 1.58 -4.78 4.68 -8.4 8.76 -10.24 1.62 -0.74 4.28 -1.4 5.64 -1.4 4.3 0 16.74 -1.7 24.08 -3.28 24.88 -5.36 41.6 -16.9 46.4 -32 1.72 -5.46 2.12 -16.86 0.88 -25.62 -0.98 -7.12 -2.72 -12.78 -5.78 -19 -5.74 -11.66 -15.14 -20.84 -27.9 -27.18 -5.1 -2.54 -9.96 -4.36 -15.22 -5.72l-2.54 -0.64 -0.22 -1.14c-0.7 -3.58 -0.76 -8.28 -0.14 -11.82s3.38 -12.7 4.5 -14.88c0.3 -0.62 0.5 -1.12 0.44 -1.1 -0.06 0 -0.98 0.24 -2.02 0.5zm-5.6 6.76c0 0.06 -0.4 1.54 -0.9 3.32 -1.3 4.72 -1.58 7 -1.42 12 0.06 2.26 0.18 4.42 0.24 4.8l0.12 0.72 -2.42 -0.34c-1.32 -0.2 -4.1 -0.54 -6.16 -0.78 -2.06 -0.22 -4.06 -0.46 -4.4 -0.52l-0.66 -0.1V15.28l1.86 -1.14c2.84 -1.72 7 -3.82 10.4 -5.26 2.94 -1.24 3.34 -1.38 3.34 -1.2zM105.2 38.36v7.36l4.56 0.24c20.8 1.12 37.24 6.8 50.6 17.5 2.92 2.34 9.54 8.84 11.52 11.34 4.2 5.26 6.66 10.26 7.86 15.8 0.54 2.62 0.46 6.54 -0.18 9 -2.74 10.22 -9.06 19.16 -18.16 25.6 -6.74 4.8 -16.04 8.62 -24.3 9.98 -0.76 0.14 -1.58 0.28 -1.8 0.32 -0.26 0.06 -0.12 -0.14 0.4 -0.54 1.64 -1.28 4.52 -4.42 5.78 -6.3 2.52 -3.78 4.54 -8.58 5.46 -12.86 0.5 -2.4 0.5 -8.14 0 -10 -1.2 -4.32 -3.96 -7.6 -8.04 -9.52 -6.74 -3.18 -13.02 -3.84 -26.8 -2.78 -2.08 0.16 -5.74 0.44 -8.1 0.6s-5.46 0.4 -6.9 0.5c-19.24 1.46 -38.04 -0.18 -51.66 -4.5 -1.9 -0.6 -1.9 -0.62 -0.32 -2.2 4.72 -4.7 19.26 -9.44 39.18 -12.78 3.62 -0.6 3.9 -0.68 3 -0.8 -2.16 -0.28 -7.42 -0.72 -10.18 -0.84l-2.88 -0.14 -1.08 1.14 -1.06 1.16 -0.7 -1.22c-0.38 -0.66 -0.84 -1.22 -1.02 -1.22 -0.16 0 -0.78 0.58 -1.38 1.3s-1.14 1.3 -1.22 1.3c-0.24 0 -1.4 -1.42 -1.74 -2.12 -0.16 -0.38 -0.42 -0.68 -0.56 -0.68s-0.72 0.68 -1.3 1.5c-0.56 0.82 -1.14 1.5 -1.3 1.5 -0.14 0 -0.82 -0.64 -1.5 -1.4l-1.26 -1.4 -1.16 1.8c-0.64 0.98 -1.2 1.8 -1.26 1.8 -0.14 0 -1.44 -1.44 -2.2 -2.42 -0.32 -0.44 -0.64 -0.78 -0.72 -0.78s-0.44 0.86 -0.78 1.9 -0.68 1.9 -0.72 1.9c-0.34 0 -2.18 -1.12 -3.12 -1.88l-1.12 -0.9 -0.12 0.62c-0.06 0.34 -0.12 1.22 -0.12 1.98s-0.04 1.38 -0.1 1.38c-0.34 0 -2.6 -1.3 -3.9 -2.24l-1.5 -1.08 0.06 2.36 0.08 2.36 -1.38 -0.5c-0.74 -0.28 -2.04 -0.9 -2.86 -1.38s-1.52 -0.86 -1.54 -0.84 0.26 1.18 0.64 2.58c0.36 1.4 0.58 2.54 0.48 2.54 -0.46 0 -2.88 -1.06 -3.9 -1.7 -0.62 -0.4 -1.16 -0.7 -1.2 -0.66s0.2 1.24 0.54 2.64c0.32 1.42 0.54 2.62 0.5 2.68 -0.2 0.18 -2.04 -0.4 -3.82 -1.22 -5.84 -2.68 -12.96 -7.72 -18.58 -13.12C10.8 69.56 6.8 65.08 6.8 64.84c0 -0.4 6.08 -5.46 9.88 -8.22C39.18 40.3 69 31.32 101.76 31.04l3.44 -0.04v7.36zm14.48 60.18c-0.08 0.32 -0.18 0.62 -0.26 0.68 -0.1 0.12 -17.88 3.58 -18.34 3.58 -0.2 0 -2.78 -3.18 -2.66 -3.28 0.08 -0.06 11.36 -0.98 16.08 -1.3 1.22 -0.1 2.9 -0.18 3.76 -0.2l1.54 -0.02 -0.12 0.54zM71.52 133.62c3.28 0.32 6.68 1.06 10.42 2.26 4.98 1.62 6.38 1.94 9.46 2.06 3.68 0.16 6.44 -0.2 13.26 -1.68l0.54 -0.12v8.84l-1.02 1.36c-1.22 1.62 -2.96 5.14 -3.66 7.36 -0.28 0.88 -0.96 3.66 -1.52 6.2 -2.32 10.52 -3.62 14.62 -5.78 18.46 -0.82 1.42 -2.62 3.9 -2.74 3.78 -0.06 -0.04 0.12 -1.2 0.4 -2.56 1.36 -6.9 1.8 -11.54 1.66 -17.44 -0.16 -6.14 -0.78 -9.12 -2.72 -12.82 -1.06 -2.04 -2.9 -4.14 -4.64 -5.34 -6.84 -4.64 -18.48 -6.98 -34.86 -6.98 -3.28 0 -4.94 -0.06 -4.8 -0.2 0.34 -0.34 5.5 -1.94 7.68 -2.38 1.16 -0.24 3.14 -0.54 4.4 -0.7 2.8 -0.34 10.9 -0.4 13.92 -0.1z"/><path d="M55.48 42.62c-1.04 0.24 -2.42 1.42 -2.9 2.46 -0.44 0.96 -0.48 2.48 -0.12 3.38 1.66 3.92 7.24 3.52 8.32 -0.6 0.8 -3.04 -2.14 -5.94 -5.3 -5.24zm38.22 6.34c-0.02 6.68 -1.48 11.08 -4.78 14.32l-1.4 1.38 1.44 -0.1c7.44 -0.54 10.92 -11.5 5.68 -17.86 -0.92 -1.12 -0.94 -1.08 -0.94 2.26zm13.26 -0.52c0.04 0.92 -0.02 2.64 -0.16 3.82 -0.6 5.8 -1.94 9.12 -4.82 11.92l-1.24 1.22h0.88c3.76 -0.02 7.16 -3.08 8.32 -7.46 0.68 -2.6 0.32 -6.26 -0.86 -8.58 -0.46 -0.92 -1.78 -2.56 -2.06 -2.56 -0.06 0 -0.08 0.74 -0.06 1.64zm10.66 0.82c-0.04 7 -1.74 11.98 -5.22 15.22l-1.04 0.98 1.4 -0.1c4.9 -0.36 8.54 -5.36 8.18 -11.24 -0.06 -1 -0.3 -2.42 -0.52 -3.14 -0.46 -1.46 -1.78 -3.64 -2.4 -3.96 -0.38 -0.22 -0.4 -0.16 -0.4 2.24z"/></svg>