<svg version="1.0" xmlns="http://www.w3.org/2000/svg" width="23.925" height="24" viewBox="0 0 17.944 18"><path d="M13.29.086a8.033 8.033 0 0 0-2.871 1.419c-.174.136-.609.521-.867.768l-.178.17-.336.013c-1.961.075-3.733.452-5.363 1.146-1.314.559-2.518 1.331-3.363 2.155l-.278.271.107.14c1.666 2.17 4.364 3.241 7.975 3.17l.611-.011.097.142c.161.239.458.596.68.819.346.346.574.514 1.054.778.196.108.617.307.628.295.019-.019.239-1.157.355-1.83.036-.207.067-.381.073-.385.019-.019.523.039.678.079.432.11.647.307.768.701.084.275.071.473-.047.71-.262.533-1.284 1.064-3.006 1.561-.809.234-1.286.297-1.693.224a5.754 5.754 0 0 1-.51-.14c-.667-.213-.918-.25-1.721-.252-.514 0-.611.006-.869.045-.935.14-1.635.456-2.14.963l-.206.207 1.327.011c1.361.011 1.607.022 2.103.103.593.093 1.112.269 1.411.475.351.241.516.772.49 1.57-.022.649-.17 1.486-.407 2.307a2.192 2.192 0 0 0-.067.265c.013.013.222-.065.379-.142.469-.226.828-.591 1.078-1.093.183-.368.286-.707.48-1.57.073-.329.155-.66.179-.735.148-.447.437-.785.819-.957.151-.069.4-.131.527-.131.402 0 1.564-.159 2.25-.307 2.325-.501 3.888-1.579 4.336-2.991.161-.51.198-1.576.082-2.394a5.515 5.515 0 0 0-.54-1.776c-.536-1.09-1.415-1.948-2.607-2.54a7.213 7.213 0 0 0-1.422-.535l-.237-.06-.021-.107c-.065-.335-.071-.774-.013-1.105s.316-1.187.421-1.391a.345.345 0 0 0 .041-.103c-.006 0-.092.022-.189.047zm-.523.632c0 .006-.037.144-.084.31a3.101 3.101 0 0 0-.133 1.121c.006.211.017.413.022.449l.011.067-.226-.032c-.123-.019-.383-.05-.576-.073a12.535 12.535 0 0 1-.411-.049l-.062-.009V1.428l.174-.107c.265-.161.654-.357.972-.492.275-.116.312-.129.312-.112zM9.832 3.585v.688l.426.022c1.944.105 3.48.636 4.729 1.635.273.219.892.826 1.077 1.06.393.492.622.959.735 1.477.05.245.043.611-.017.841-.256.955-.847 1.791-1.697 2.393a5.777 5.777 0 0 1-2.271.933l-.168.03c-.024.006-.011-.013.037-.05.153-.12.422-.413.54-.589.236-.353.424-.802.51-1.202.047-.224.047-.761 0-.935a1.357 1.357 0 0 0-.751-.89c-.63-.297-1.217-.359-2.505-.26-.194.015-.536.041-.757.056s-.51.037-.645.047c-1.798.136-3.555-.017-4.828-.421-.178-.056-.178-.058-.03-.206.441-.439 1.8-.882 3.662-1.194.338-.056.364-.064.28-.075a16.304 16.304 0 0 0-.951-.079l-.269-.013-.101.107-.099.108-.065-.114c-.036-.062-.079-.114-.095-.114-.015 0-.073.054-.129.121s-.107.121-.114.121c-.022 0-.131-.133-.163-.198-.015-.036-.039-.064-.052-.064s-.067.064-.121.14c-.052.077-.107.14-.121.14a.62.62 0 0 1-.14-.131l-.118-.131-.108.168c-.06.092-.112.168-.118.168a1.58 1.58 0 0 1-.206-.226c-.03-.041-.06-.073-.067-.073s-.041.08-.073.178-.064.178-.067.178c-.032 0-.204-.105-.292-.176l-.105-.084-.011.058c-.006.032-.011.114-.011.185s-.004.129-.009.129c-.032 0-.243-.121-.364-.209l-.14-.101.006.221.007.221-.129-.047c-.069-.026-.191-.084-.267-.129s-.142-.08-.144-.079.024.11.06.241c.034.131.054.237.045.237-.043 0-.269-.099-.364-.159-.058-.037-.108-.065-.112-.062s.019.116.05.247c.03.133.05.245.047.25-.019.017-.191-.037-.357-.114-.546-.25-1.211-.721-1.736-1.226-.147-.133-.52-.552-.52-.574 0-.037.568-.51.923-.768 2.103-1.526 4.89-2.365 7.951-2.391l.321-.004v.688zm1.353 5.624a.175.175 0 0 1-.024.064 58.7 58.7 0 0 1-1.714.335c-.019 0-.26-.297-.249-.307a60.711 60.711 0 0 1 1.503-.121c.114-.009.271-.017.351-.019l.144-.002-.011.05zm-4.501 3.279c.307.03.624.099.974.211.465.151.596.181.884.193.344.015.602-.019 1.239-.157l.05-.011v.826l-.095.127c-.114.151-.277.48-.342.688a9.76 9.76 0 0 0-.142.579c-.217.983-.338 1.366-.54 1.725-.077.133-.245.364-.256.353a1.292 1.292 0 0 1 .037-.239c.127-.645.168-1.078.155-1.63-.015-.574-.073-.852-.254-1.198a1.474 1.474 0 0 0-.434-.499c-.639-.434-1.727-.652-3.258-.652-.307 0-.462-.006-.449-.019.032-.032.514-.181.718-.222.108-.022.293-.05.411-.065a9.392 9.392 0 0 1 1.301-.009z"/><path d="M5.185 3.983a.48.48 0 0 0-.271.23.46.46 0 0 0-.011.316.41.41 0 0 0 .778-.056c.075-.284-.2-.555-.495-.49zm3.572.593c-.002.624-.138 1.036-.447 1.338l-.131.129.135-.009c.695-.05 1.021-1.075.531-1.669-.086-.105-.088-.101-.088.211zm1.239-.049a2.66 2.66 0 0 1-.015.357c-.056.542-.181.852-.45 1.114l-.116.114h.082c.351-.002.669-.288.778-.697.064-.243.03-.585-.08-.802-.043-.086-.166-.239-.193-.239a.635.635 0 0 0-.006.153zm.996.077c-.004.654-.163 1.12-.488 1.422l-.097.092.131-.009c.458-.034.798-.501.764-1.05a1.54 1.54 0 0 0-.049-.293c-.043-.136-.166-.34-.224-.37-.036-.021-.037-.015-.037.209z"/></svg>