<?xml version="1.0" standalone="no"?>
<!DOCTYPE svg PUBLIC "-//W3C//DTD SVG 20010904//EN"
 "http://www.w3.org/TR/2001/REC-SVG-20010904/DTD/svg10.dtd">
<svg version="1.0" xmlns="http://www.w3.org/2000/svg"
 width="960.000000pt" height="963.000000pt" viewBox="0 0 960.000000 963.000000"
 preserveAspectRatio="xMidYMid meet">

<g transform="translate(0.000000,963.000000) scale(0.100000,-0.100000)"
fill="#000000" stroke="none">
<path d="M7110 9584 c-539 -138 -1089 -410 -1536 -759 -93 -73 -326 -279 -464
-411 l-95 -91 -180 -7 c-1049 -40 -1997 -242 -2869 -613 -703 -299 -1347 -712
-1799 -1153 l-149 -145 57 -75 c892 -1161 2335 -1734 4267 -1696 l327 6 52
-76 c86 -128 245 -319 364 -438 185 -185 307 -275 564 -416 105 -58 330 -164
336 -158 10 10 128 619 190 979 19 111 36 204 39 206 10 10 280 -21 363 -42
231 -59 346 -164 411 -375 45 -147 38 -253 -25 -380 -140 -285 -687 -569
-1608 -835 -433 -125 -688 -159 -906 -120 -46 8 -169 42 -273 75 -357 114
-491 134 -921 135 -275 0 -327 -3 -465 -24 -500 -75 -875 -244 -1145 -515
l-110 -111 710 -6 c728 -6 860 -12 1125 -55 317 -50 595 -144 755 -254 188
-129 276 -413 262 -840 -12 -347 -91 -795 -218 -1234 -22 -76 -38 -140 -36
-142 7 -7 119 35 203 76 251 121 443 316 577 585 98 197 153 378 257 840 39
176 83 353 96 393 79 239 234 420 438 512 81 37 214 70 282 70 215 0 837 85
1204 164 1244 268 2080 845 2320 1600 86 273 106 843 44 1281 -49 356 -136
639 -289 950 -287 583 -757 1042 -1395 1359 -255 127 -498 218 -761 286 l-127
32 -11 57 c-35 179 -38 414 -7 591 31 177 169 635 225 744 15 31 25 56 22 55
-3 0 -49 -12 -101 -25z m-280 -338 c0 -3 -20 -77 -45 -166 -65 -236 -79 -350
-71 -600 3 -113 9 -221 12 -240 l6 -36 -121 17 c-66 10 -205 27 -308 39 -103
11 -203 23 -220 26 l-33 5 0 287 0 288 93 57 c142 86 350 191 520 263 147 62
167 69 167 60z m-1570 -1534 l0 -368 228 -12 c1040 -56 1862 -340 2530 -875
146 -117 477 -442 576 -567 210 -263 333 -513 393 -790 27 -131 23 -327 -9
-450 -137 -511 -453 -958 -908 -1280 -337 -240 -802 -431 -1215 -499 -38 -7
-79 -14 -90 -16 -13 -3 -6 7 20 27 82 64 226 221 289 315 126 189 227 429 273
643 25 120 25 407 0 500 -60 216 -198 380 -402 476 -337 159 -651 192 -1340
139 -104 -8 -287 -22 -405 -30 -118 -8 -273 -20 -345 -25 -962 -73 -1902 9
-2583 225 -95 30 -95 31 -16 110 236 235 963 472 1959 639 181 30 195 34 150
40 -108 14 -371 36 -509 42 l-144 7 -54 -57 -53 -58 -35 61 c-19 33 -42 61
-51 61 -8 0 -39 -29 -69 -65 -30 -36 -57 -65 -61 -65 -12 0 -70 71 -87 106 -8
19 -21 34 -28 34 -7 0 -36 -34 -65 -75 -28 -41 -57 -75 -65 -75 -7 0 -41 32
-75 70 l-63 70 -58 -90 c-32 -49 -60 -90 -63 -90 -7 0 -72 72 -110 121 -16 22
-32 39 -36 39 -4 0 -22 -43 -39 -95 -17 -52 -34 -95 -36 -95 -17 0 -109 56
-156 94 l-56 45 -6 -31 c-3 -17 -6 -61 -6 -99 0 -38 -2 -69 -5 -69 -17 0 -130
65 -195 112 l-75 54 3 -118 4 -118 -69 25 c-37 14 -102 45 -143 69 -41 24 -76
43 -77 42 -1 -1 13 -59 32 -129 18 -70 29 -127 24 -127 -23 0 -144 53 -195 85
-31 20 -58 35 -60 33 -2 -2 10 -62 27 -132 16 -71 27 -131 25 -134 -10 -9
-102 20 -191 61 -292 134 -648 386 -929 656 -76 73 -276 297 -276 309 0 20
304 273 494 411 1125 816 2616 1265 4254 1279 l172 2 0 -368z m724 -3009 c-4
-16 -9 -31 -13 -34 -5 -6 -894 -179 -917 -179 -10 0 -139 159 -133 164 4 3
568 49 804 65 61 5 145 9 188 10 l77 1 -6 -27z m-2408 -1754 c164 -16 334 -53
521 -113 249 -81 319 -97 473 -103 184 -8 322 10 663 84 l27 6 0 -221 0 -221
-51 -68 c-61 -81 -148 -257 -183 -368 -14 -44 -48 -183 -76 -310 -116 -526
-181 -731 -289 -923 -41 -71 -131 -195 -137 -189 -3 2 6 60 20 128 68 345 90
577 83 872 -8 307 -39 456 -136 641 -53 102 -145 207 -232 267 -342 232 -924
349 -1743 349 -164 0 -247 3 -240 10 17 17 275 97 384 119 58 12 157 27 220
35 140 17 545 20 696 5z"/>
<path d="M2774 7499 c-52 -12 -121 -71 -145 -123 -22 -48 -24 -124 -6 -169 83
-196 362 -176 416 30 40 152 -107 297 -265 262z"/>
<path d="M4685 7182 c-1 -334 -74 -554 -239 -716 l-70 -69 72 5 c372 27 546
575 284 893 -46 56 -47 54 -47 -113z"/>
<path d="M5348 7208 c2 -46 -1 -132 -8 -191 -30 -290 -97 -456 -241 -596 l-62
-61 44 0 c188 1 358 154 416 373 34 130 16 313 -43 429 -23 46 -89 128 -103
128 -3 0 -4 -37 -3 -82z"/>
<path d="M5881 7167 c-2 -350 -87 -599 -261 -761 l-52 -49 70 5 c245 18 427
268 409 562 -3 50 -15 121 -26 157 -23 73 -89 182 -120 198 -19 11 -20 8 -20
-112z"/>
</g>
</svg>
